<?xml version="1.0" standalone="no"?>
<!DOCTYPE svg PUBLIC "-//W3C//DTD SVG 20010904//EN"
 "http://www.w3.org/TR/2001/REC-SVG-20010904/DTD/svg10.dtd">
<svg version="1.0" xmlns="http://www.w3.org/2000/svg"
 width="1000.000000pt" height="1000.000000pt" viewBox="0 0 1000.000000 1000.000000"
 preserveAspectRatio="xMidYMid meet">

<g transform="translate(0.000000,1000.000000) scale(0.100000,-0.100000)"
fill="#000000" stroke="none">
<path d="M4145 7250 c-76 -10 -220 -44 -275 -66 -34 -14 -46 -26 -61 -62 -17
-38 -22 -43 -42 -38 -71 21 -80 19 -157 -35 -187 -132 -313 -320 -351 -525
-17 -94 -27 -404 -17 -544 9 -131 9 -140 -17 -245 -73 -295 -7 -430 335 -693
169 -130 260 -213 330 -302 33 -41 68 -81 80 -88 15 -9 20 -23 20 -54 0 -23 5
-79 12 -125 9 -65 9 -128 -1 -295 -7 -117 -17 -249 -22 -293 -6 -52 -5 -144 2
-265 l12 -185 -32 -100 c-27 -87 -33 -127 -46 -305 -8 -113 -15 -235 -15 -272
0 -82 11 -90 103 -86 34 1 89 -1 122 -5 59 -8 61 -7 96 27 33 31 37 42 43 103
13 136 35 464 51 748 8 160 20 322 25 360 6 39 15 131 20 205 20 271 38 350
101 455 84 142 167 207 499 398 63 36 159 98 214 136 54 39 104 71 112 71 7 0
16 16 19 38 4 20 15 57 25 82 32 78 53 253 66 551 5 101 3 161 -5 196 -12 47
-10 58 18 151 35 112 38 164 15 283 -40 212 -158 398 -343 537 -254 192 -607
283 -936 242z m490 -509 c53 -21 79 -42 215 -180 141 -141 160 -164 197 -241
22 -47 44 -103 47 -125 8 -52 -19 -343 -39 -420 -33 -127 -97 -243 -190 -344
-56 -60 -137 -121 -161 -121 -8 0 -33 -19 -56 -43 -24 -23 -63 -54 -88 -68
l-45 -25 -170 7 c-94 4 -200 14 -237 23 -504 119 -762 684 -520 1141 23 44 49
78 69 90 18 11 35 32 38 47 3 14 30 48 58 75 55 51 268 197 302 206 11 3 133
5 270 3 233 -2 254 -4 310 -25z"/>
<path d="M4394 6528 l31 -122 -22 -135 c-12 -74 -21 -136 -19 -138 1 -2 24 28
49 67 l47 70 11 126 11 126 -63 64 c-35 35 -66 64 -70 64 -3 0 8 -55 25 -122z"/>
<path d="M4093 6620 c-56 -23 -65 -101 -15 -140 35 -28 77 -25 109 6 60 60
-15 167 -94 134z"/>
<path d="M4653 6338 c-30 -34 -36 -63 -19 -96 17 -33 34 -42 80 -42 39 0 76
35 76 72 0 15 -12 40 -26 57 -32 39 -80 42 -111 9z"/>
<path d="M3797 6280 c-43 -4 -80 -9 -82 -11 -10 -11 187 -100 242 -109 34 -6
99 -29 144 -51 45 -22 83 -39 85 -37 2 2 -20 36 -49 75 -45 62 -62 76 -125
107 -76 38 -83 38 -215 26z"/>
<path d="M4895 6025 l-80 -45 -165 -1 c-185 -1 -183 -4 27 -44 105 -19 157
-25 197 -20 l54 7 30 74 c16 41 27 74 23 74 -3 0 -42 -21 -86 -45z"/>
<path d="M3701 5989 c-34 -14 -50 -39 -51 -80 0 -69 77 -103 134 -58 66 52 -4
169 -83 138z"/>
<path d="M4180 5913 c-8 -4 -79 -37 -156 -74 l-141 -67 -22 -78 c-11 -44 -25
-94 -30 -111 -5 -18 -6 -33 -2 -33 4 0 36 35 70 77 37 46 98 103 153 144 49
38 104 86 120 109 16 22 28 40 26 39 -1 0 -10 -3 -18 -6z"/>
<path d="M4352 5685 l0 -180 73 -66 c65 -58 118 -89 132 -76 2 3 -23 49 -56
103 -44 73 -67 124 -86 194 -15 52 -35 120 -45 150 l-18 55 0 -180z"/>
<path d="M4654 5713 c-32 -35 -27 -87 11 -120 34 -30 66 -29 105 4 28 23 31
31 26 61 -12 79 -92 109 -142 55z"/>
<path d="M4112 5537 c-79 -41 -54 -157 34 -157 40 0 84 36 84 71 0 30 -29 75
-57 88 -30 14 -33 14 -61 -2z"/>
<path d="M1325 6659 c-71 -3 -153 -7 -181 -8 l-50 -1 -13 -309 c-12 -295 -12
-310 6 -337 17 -26 18 -49 15 -289 -4 -249 9 -490 28 -539 11 -29 49 -43 163
-58 111 -15 112 -14 120 114 4 51 16 154 28 228 17 112 21 177 20 378 l-1 242
24 0 c20 0 34 -20 95 -133 42 -78 96 -159 127 -195 30 -33 65 -85 78 -114 28
-61 43 -76 149 -147 140 -94 163 -96 246 -23 39 35 61 66 86 122 23 51 48 88
78 115 49 44 165 203 202 276 13 25 30 51 39 58 13 11 14 -28 8 -371 -6 -386
-5 -598 3 -606 3 -3 22 3 43 12 31 14 46 15 82 7 25 -6 83 -11 129 -11 83 0
83 0 77 24 -21 86 -26 184 -16 376 23 446 24 558 6 669 l-17 104 31 89 c36
102 35 121 -7 257 l-26 84 -175 -7 c-124 -6 -179 -11 -188 -21 -8 -7 -17 -15
-21 -17 -8 -3 -90 -142 -217 -364 -25 -45 -46 -85 -46 -91 0 -5 -11 -20 -25
-33 -14 -13 -25 -31 -25 -39 0 -39 -68 -140 -134 -199 -37 -34 -72 -62 -77
-62 -5 0 -24 30 -43 68 -19 37 -59 102 -90 144 -55 78 -116 187 -116 210 0 6
-8 21 -19 32 -10 12 -25 41 -34 66 -8 25 -38 101 -65 170 -49 124 -49 125 -80
123 -17 -2 -34 2 -37 7 -3 6 -16 9 -28 8 -12 -1 -80 -5 -152 -9z"/>
<path d="M6980 6630 l-125 -5 3 -55 c2 -30 7 -93 11 -140 4 -47 4 -152 1 -235
-4 -82 -5 -228 -2 -324 4 -121 2 -173 -6 -170 -23 8 -150 180 -202 273 -36 65
-82 127 -134 183 -67 71 -95 112 -178 266 -54 100 -98 185 -98 189 0 10 -16
10 -120 -2 -66 -8 -106 -6 -183 6 l-98 15 -19 -23 c-27 -32 -27 -35 -40 -278
-7 -118 -14 -218 -16 -221 -2 -4 1 -20 7 -37 7 -21 7 -58 0 -124 -18 -157 -34
-533 -26 -612 6 -71 9 -76 58 -131 l51 -58 79 7 c44 4 83 9 87 11 4 3 11 35
15 72 3 38 20 136 36 218 47 245 59 342 59 492 0 78 3 148 6 157 13 33 41 16
78 -46 40 -69 170 -235 245 -313 117 -122 257 -321 305 -432 34 -79 81 -161
101 -175 16 -12 151 -9 221 4 l64 11 0 66 c0 36 7 181 16 321 14 215 15 289 5
470 -8 147 -8 248 -2 320 16 165 18 300 6 302 -24 3 -87 3 -205 -2z"/>
<path d="M8319 6636 c-2 -2 -76 -10 -164 -16 -88 -7 -169 -16 -180 -20 -25
-10 -198 -324 -267 -486 -27 -62 -64 -170 -84 -241 -33 -119 -49 -166 -126
-348 -74 -177 -114 -339 -87 -355 7 -5 90 -9 185 -10 l173 -1 14 28 c8 15 18
44 22 63 10 50 94 253 108 262 7 4 48 8 92 8 44 0 139 9 210 20 168 25 250 26
259 3 4 -9 11 -60 16 -113 13 -133 26 -186 56 -226 l26 -34 174 0 c153 0 174
2 174 16 0 9 -13 55 -29 103 -15 47 -45 140 -65 206 -105 338 -169 527 -191
567 -13 23 -33 77 -44 118 -70 260 -97 329 -161 408 -36 43 -49 52 -75 52 -17
0 -34 -2 -36 -4z m-52 -403 c3 -10 21 -54 40 -98 19 -44 48 -136 64 -205 16
-69 30 -132 33 -141 2 -9 0 -22 -4 -28 -4 -7 -91 -23 -201 -37 -107 -13 -201
-27 -211 -30 -9 -3 -19 -1 -21 3 -8 13 86 310 115 368 15 28 47 76 72 109 25
32 46 62 46 67 0 18 60 10 67 -8z"/>
<path d="M5548 5232 l-57 -47 -56 -168 -57 -168 58 -72 58 -71 18 206 17 207
42 76 c23 42 40 78 37 80 -2 2 -29 -17 -60 -43z"/>
<path d="M5270 4973 c2 -78 27 -304 35 -311 36 -32 167 -124 171 -120 2 3 -18
45 -45 94 -29 53 -60 128 -76 184 -23 83 -66 180 -80 180 -3 0 -5 -12 -5 -27z"/>
<path d="M5581 4863 c-24 -248 -27 -283 -21 -283 3 1 25 19 49 41 39 35 45 47
52 95 6 48 3 70 -27 165 -19 60 -36 109 -38 109 -1 0 -8 -57 -15 -127z"/>
<path d="M6954 4861 c-46 -29 -64 -59 -64 -112 0 -83 72 -141 148 -119 47 13
69 30 82 64 15 42 12 88 -10 123 -34 56 -105 76 -156 44z"/>
<path d="M5105 4730 c20 -139 48 -247 71 -280 l24 -35 -101 -5 -101 -5 -38
-45 c-36 -42 -78 -146 -64 -159 3 -3 74 -6 157 -6 130 0 586 -23 595 -30 2 -2
-19 -32 -45 -68 -26 -36 -74 -101 -106 -145 -32 -44 -101 -120 -153 -167 -110
-102 -205 -223 -514 -660 -89 -125 -85 -115 -74 -181 l9 -59 65 -7 c75 -8 92
-8 850 35 19 1 88 -2 152 -7 65 -4 142 -5 172 -2 48 6 57 11 80 45 21 30 26
49 26 97 l0 60 -102 22 c-152 33 -212 38 -440 36 -135 -1 -208 2 -208 8 0 17
41 80 89 137 178 211 237 286 281 356 28 44 73 115 101 158 27 43 58 101 69
130 12 32 48 84 91 135 80 93 78 80 31 212 -39 108 -49 114 -195 116 -60 1
-111 5 -114 8 -3 3 21 65 54 138 33 73 58 135 56 138 -3 3 -67 -60 -144 -139
l-139 -145 -34 33 c-19 18 -70 54 -115 79 -44 26 -111 76 -149 112 -37 36 -85
81 -106 100 l-38 35 7 -45z"/>
<path d="M2611 4410 c-23 -17 -45 -38 -48 -46 -3 -9 4 -77 16 -152 18 -113 22
-181 22 -387 1 -314 -15 -639 -38 -772 -16 -96 -16 -105 0 -138 17 -35 17 -35
79 -33 35 1 117 -1 183 -6 98 -7 130 -6 172 7 42 13 96 15 280 13 125 -2 240
-7 255 -11 25 -7 27 -4 37 32 27 100 26 126 -10 181 l-34 52 -165 2 c-234 4
-286 3 -365 -2 l-70 -5 -12 35 c-21 57 -7 676 18 850 14 92 19 174 17 260 l-3
125 -65 -3 c-36 -2 -101 4 -145 12 -44 9 -80 16 -81 16 -1 0 -20 -14 -43 -30z"/>
<path d="M6616 4390 c-23 -24 -24 -35 -35 -280 -7 -140 -14 -263 -16 -273 -2
-10 1 -31 5 -48 14 -47 -15 -532 -35 -598 -10 -34 -14 -63 -9 -80 4 -14 6 -73
5 -130 l-3 -104 318 7 c176 3 381 9 457 12 l137 7 0 89 0 89 -34 14 c-25 11
-99 17 -253 21 -120 4 -224 11 -230 17 -20 15 -17 235 4 325 l17 72 52 0 c111
0 309 22 332 36 31 20 35 35 28 98 -7 53 -8 55 -44 60 -20 3 -104 10 -186 16
l-149 9 -34 33 -34 33 6 135 c8 161 11 190 23 202 5 5 109 13 231 18 165 8
230 14 252 26 l30 15 -3 85 -3 86 -50 20 c-47 18 -72 19 -403 16 l-353 -3 -23
-25z"/>
</g>
</svg>
